# xmcd
#
# Track frame offsets: 
#        150
#        11043
#        24558
#        34708
#        47350
#        57533
#        67620
#        76844
#        86771
#        97797
#        107529
#        118537
#        127707
#        137696
#        149053
#        158144
#        173506
#        183449
#        194195
#        202394
#        214826
#        226732
#        238098
#        248643
#        258786
#        267314
#        278383
#        289530
#
# Disc length: 4037 seconds
#
# Revision: 1
# Processed by: cddbd v1.5.2PL0 Copyright (c) Steve Scherf et al.
# Submitted via: ExactAudioCopyFreeDBPlugin 1.0
#
DISCID=7d0fc31c
DTITLE=Various Artist - By the Bayou [Ace Records]
DYEAR=2018
DGENRE=Rhythm and Blues
TTITLE0=Willie Goodson - Put a Nickel in the Jukebox
TTITLE1=Amos Como and His Tune Toppers - Hole in the Wall
TTITLE2=Johnny Jano - Mable's Gone (slow version)
TTITLE3=Jimmy Newman - H-Brown Shuffle
TTITLE4=Doug Kershaw - Kary on Boogie
TTITLE5=Johnny Jano - She's My Baby (take 2)
TTITLE6=The Tune Tones - Tutti Frutti
TTITLE7=Al Ferrier - Blues Stop Knockin (fast version)
TTITLE8=T.K. Hulin and the Lonely Knights - Little Bitty Boy
TTITLE9=Warren Storm - No No (alternate take)
TTITLE10=Joe Carl and The Dukes of Rhythm - Jambalaya
TTITLE11=Andy Charles - Baby Dont' Go (alternate take)
TTITLE12=Jay Richards - Gosh Dog Baby
TTITLE13=Ken Cameron - The Snake
TTITLE14=Rocket Morgan - Irene
TTITLE15=Frankie Lowery and The Golden Rockets - Goin' to Louisiana
TTITLE16=Larry Hart - My Glass is Empty (alternate take)
TTITLE17=Little Billy Earl - Couple in the Car (alternate take)
TTITLE18=Dean and Gene - Jail Break
TTITLE19=Bob Henderson - So Long
TTITLE20=The Tune Tones - Got Something for You Baby
TTITLE21=Peto Marlowe and The Rhythm Kings - I'm Leaving Tomorrow
TTITLE22=Jay Richards - Little Shyrel
TTITLE23=Lenny Capello and The Dots - Cotton Candy
TTITLE24=Boo - Where Did You Stay
TTITLE25=Charles Page - Able Miss Gable
TTITLE26=(unknown artist) - I'm a Man
TTITLE27=Gene Terry - Flip, Flop and Fly (demo)
EXTD=
EXTT0=
EXTT1=
EXTT2=
EXTT3=
EXTT4=
EXTT5=
EXTT6=
EXTT7=
EXTT8=
EXTT9=
EXTT10=
EXTT11=
EXTT12=
EXTT13=
EXTT14=
EXTT15=
EXTT16=
EXTT17=
EXTT18=
EXTT19=
EXTT20=
EXTT21=
EXTT22=
EXTT23=
EXTT24=
EXTT25=
EXTT26=
EXTT27=
PLAYORDER=
